<svg width="100%" height="100%" id="svg" viewBox="0 0 1440 500" xmlns="http://www.w3.org/2000/svg" class="transition duration-300 ease-in-out delay-150"><path d="M 0,500 C 0,500 0,125 0,125 C 71.69377990430621,126.02392344497608 143.38755980861242,127.04784688995215 246,134 C 348.6124401913876,140.95215311004785 482.1435406698564,153.83253588516746 579,144 C 675.8564593301436,134.16746411483254 736.0382775119617,101.622009569378 835,97 C 933.9617224880383,92.377990430622 1071.7033492822968,115.6794258373206 1179,125 C 1286.2966507177032,134.3205741626794 1363.1483253588517,129.6602870813397 1440,125 C 1440,125 1440,500 1440,500 Z" stroke="none" stroke-width="0" fill="#e1e7e9" fill-opacity="0.4" class="transition-all duration-300 ease-in-out delay-150 path-0" transform="rotate(-180 720 250)"></path><path d="M 0,500 C 0,500 0,250 0,250 C 86.04784688995215,244.7464114832536 172.0956937799043,239.4928229665072 259,238 C 345.9043062200957,236.5071770334928 433.66507177033486,238.7751196172249 548,241 C 662.3349282296651,243.2248803827751 803.2440191387559,245.4066985645933 915,245 C 1026.755980861244,244.5933014354067 1109.3588516746413,241.5980861244019 1192,242 C 1274.6411483253587,242.4019138755981 1357.3205741626793,246.20095693779905 1440,250 C 1440,250 1440,500 1440,500 Z" stroke="none" stroke-width="0" fill="#e1e7e9" fill-opacity="0.53" class="transition-all duration-300 ease-in-out delay-150 path-1" transform="rotate(-180 720 250)"></path><path d="M 0,500 C 0,500 0,375 0,375 C 113.6267942583732,380.77033492822966 227.2535885167464,386.5406698564593 308,390 C 388.7464114832536,393.4593301435407 436.6124401913876,394.60765550239233 540,386 C 643.3875598086124,377.39234449760767 802.2966507177033,359.02870813397135 905,357 C 1007.7033492822967,354.97129186602865 1054.2009569377992,369.2775119617225 1134,375 C 1213.7990430622008,380.7224880382775 1326.8995215311004,377.8612440191388 1440,375 C 1440,375 1440,500 1440,500 Z" stroke="none" stroke-width="0" fill="#e1e7e9" fill-opacity="1" class="transition-all duration-300 ease-in-out delay-150 path-2" transform="rotate(-180 720 250)"></path></svg>