<svg width="100%" height="100%" id="svg" viewBox="0 0 1440 500" xmlns="http://www.w3.org/2000/svg" class="transition duration-300 ease-in-out delay-150"><path d="M 0,500 C 0,500 0,125 0,125 C 141.19999999999993,121.53333333333333 282.39999999999986,118.06666666666668 462,121 C 641.6000000000001,123.93333333333332 859.6000000000001,133.26666666666668 1029,135 C 1198.3999999999999,136.73333333333332 1319.1999999999998,130.86666666666667 1440,125 C 1440,125 1440,500 1440,500 Z" stroke="none" stroke-width="0" fill="#202020" fill-opacity="0.4" class="transition-all duration-300 ease-in-out delay-150 path-0" transform="rotate(-180 720 250)"></path><path d="M 0,500 C 0,500 0,250 0,250 C 132.2666666666667,246.93333333333334 264.5333333333334,243.86666666666667 428,251 C 591.4666666666666,258.1333333333333 786.1333333333334,275.4666666666667 960,277 C 1133.8666666666666,278.5333333333333 1286.9333333333334,264.26666666666665 1440,250 C 1440,250 1440,500 1440,500 Z" stroke="none" stroke-width="0" fill="#202020" fill-opacity="0.53" class="transition-all duration-300 ease-in-out delay-150 path-1" transform="rotate(-180 720 250)"></path><path d="M 0,500 C 0,500 0,375 0,375 C 161.86666666666667,394.2 323.73333333333335,413.4 496,414 C 668.2666666666667,414.6 850.9333333333334,396.6000000000001 1010,387 C 1169.0666666666666,377.3999999999999 1304.5333333333333,376.19999999999993 1440,375 C 1440,375 1440,500 1440,500 Z" stroke="none" stroke-width="0" fill="#202020" fill-opacity="1" class="transition-all duration-300 ease-in-out delay-150 path-2" transform="rotate(-180 720 250)"></path></svg>