<svg width="100%" height="100%" id="svg" viewBox="0 0 1440 400" xmlns="http://www.w3.org/2000/svg" class="transition duration-300 ease-in-out delay-150"><path d="M 0,400 C 0,400 0,100 0,100 C 99.19617224880383,83.73205741626793 198.39234449760767,67.46411483253588 277,70 C 355.60765550239233,72.53588516746412 413.62679425837325,93.8755980861244 525,112 C 636.3732057416267,130.1244019138756 801.1004784688996,145.0334928229665 901,137 C 1000.8995215311004,128.9665071770335 1035.9712918660287,97.99043062200957 1115,88 C 1194.0287081339713,78.00956937799043 1317.0143540669856,89.00478468899522 1440,100 C 1440,100 1440,400 1440,400 Z" stroke="none" stroke-width="0" fill="#90c7d7" fill-opacity="0.4" class="transition-all duration-300 ease-in-out delay-150 path-0" transform="rotate(-180 720 200)"></path><path d="M 0,400 C 0,400 0,200 0,200 C 118.63157894736838,203.7799043062201 237.26315789473676,207.5598086124402 339,204 C 440.73684210526324,200.4401913875598 525.5789473684212,189.54066985645932 615,184 C 704.4210526315788,178.45933014354068 798.4210526315788,178.2775119617225 889,180 C 979.5789473684212,181.7224880382775 1066.7368421052633,185.34928229665073 1158,189 C 1249.2631578947367,192.65071770334927 1344.6315789473683,196.32535885167465 1440,200 C 1440,200 1440,400 1440,400 Z" stroke="none" stroke-width="0" fill="#90c7d7" fill-opacity="0.53" class="transition-all duration-300 ease-in-out delay-150 path-1" transform="rotate(-180 720 200)"></path><path d="M 0,400 C 0,400 0,300 0,300 C 131.34928229665073,314.26794258373207 262.69856459330146,328.53588516746413 338,331 C 413.30143540669854,333.46411483253587 432.5550239234449,324.1244019138756 526,318 C 619.4449760765551,311.8755980861244 787.0813397129189,308.9665071770335 902,314 C 1016.9186602870811,319.0334928229665 1079.1196172248804,332.00956937799043 1160,331 C 1240.8803827751196,329.99043062200957 1340.44019138756,314.9952153110048 1440,300 C 1440,300 1440,400 1440,400 Z" stroke="none" stroke-width="0" fill="#90c7d7" fill-opacity="1" class="transition-all duration-300 ease-in-out delay-150 path-2" transform="rotate(-180 720 200)"></path></svg>