<svg width="100%" height="100%" id="svg" viewBox="0 0 1440 500" xmlns="http://www.w3.org/2000/svg" class="transition duration-300 ease-in-out delay-150"><path d="M 0,500 C 0,500 0,125 0,125 C 124.66666666666669,135.8 249.33333333333337,146.6 408,147 C 566.6666666666666,147.4 759.3333333333333,137.4 937,132 C 1114.6666666666667,126.6 1277.3333333333335,125.8 1440,125 C 1440,125 1440,500 1440,500 Z" stroke="none" stroke-width="0" fill="#b6d0d8" fill-opacity="0.4" class="transition-all duration-300 ease-in-out delay-150 path-0" transform="rotate(-180 720 250)"></path><path d="M 0,500 C 0,500 0,250 0,250 C 167.19999999999993,225.2 334.39999999999986,200.4 505,209 C 675.6000000000001,217.6 849.6000000000001,259.6 1006,272 C 1162.3999999999999,284.4 1301.1999999999998,267.2 1440,250 C 1440,250 1440,500 1440,500 Z" stroke="none" stroke-width="0" fill="#b6d0d8" fill-opacity="0.53" class="transition-all duration-300 ease-in-out delay-150 path-1" transform="rotate(-180 720 250)"></path><path d="M 0,500 C 0,500 0,375 0,375 C 196.8,394.20000000000005 393.6,413.40000000000003 530,411 C 666.4,408.59999999999997 742.4000000000001,384.6 884,375 C 1025.6,365.4 1232.8,370.2 1440,375 C 1440,375 1440,500 1440,500 Z" stroke="none" stroke-width="0" fill="#b6d0d8" fill-opacity="1" class="transition-all duration-300 ease-in-out delay-150 path-2" transform="rotate(-180 720 250)"></path></svg>