<svg id="wave" style="transform:rotate(0deg); transition: 0.3s" viewBox="0 0 1440 100" version="1.1" xmlns="http://www.w3.org/2000/svg"><defs><linearGradient id="sw-gradient-0" x1="0" x2="0" y1="1" y2="0"><stop stop-color="rgba(173, 132, 201, 1)" offset="0%"></stop><stop stop-color="rgba(255, 255, 255, 1)" offset="100%"></stop></linearGradient></defs><path style="transform:translate(0, 0px); opacity:1" fill="url(#sw-gradient-0)" d="M0,0L40,15C80,30,160,60,240,73.3C320,87,400,83,480,81.7C560,80,640,80,720,81.7C800,83,880,87,960,85C1040,83,1120,77,1200,63.3C1280,50,1360,30,1440,21.7C1520,13,1600,17,1680,21.7C1760,27,1840,33,1920,35C2000,37,2080,33,2160,31.7C2240,30,2320,30,2400,38.3C2480,47,2560,63,2640,65C2720,67,2800,53,2880,55C2960,57,3040,73,3120,76.7C3200,80,3280,70,3360,68.3C3440,67,3520,73,3600,78.3C3680,83,3760,87,3840,73.3C3920,60,4000,30,4080,16.7C4160,3,4240,7,4320,15C4400,23,4480,37,4560,36.7C4640,37,4720,23,4800,28.3C4880,33,4960,57,5040,68.3C5120,80,5200,80,5280,78.3C5360,77,5440,73,5520,60C5600,47,5680,23,5720,11.7L5760,0L5760,100L5720,100C5680,100,5600,100,5520,100C5440,100,5360,100,5280,100C5200,100,5120,100,5040,100C4960,100,4880,100,4800,100C4720,100,4640,100,4560,100C4480,100,4400,100,4320,100C4240,100,4160,100,4080,100C4000,100,3920,100,3840,100C3760,100,3680,100,3600,100C3520,100,3440,100,3360,100C3280,100,3200,100,3120,100C3040,100,2960,100,2880,100C2800,100,2720,100,2640,100C2560,100,2480,100,2400,100C2320,100,2240,100,2160,100C2080,100,2000,100,1920,100C1840,100,1760,100,1680,100C1600,100,1520,100,1440,100C1360,100,1280,100,1200,100C1120,100,1040,100,960,100C880,100,800,100,720,100C640,100,560,100,480,100C400,100,320,100,240,100C160,100,80,100,40,100L0,100Z"></path></svg>